<svg xmlns="http://www.w3.org/2000/svg" width="180" height="180" viewBox="0 0 180 180">
  <defs>
    <style>
      .cls-1 {
        fill: #f0af1a;
        fill-rule: evenodd;
      }
    </style>
  </defs>
  <path id="Shape_1_copy_4" data-name="Shape 1 copy 4" class="cls-1" d="M145.312,142.844H40.937a1,1,0,0,1-1-1V141a1,1,0,0,1,1-1H145.312a1,1,0,0,1,1,1v0.844A1,1,0,0,1,145.312,142.844ZM134.9,132.3a2.4,2.4,0,0,1-3.4,0l-19.09-19.109a45.591,45.591,0,0,1-8.582,5.513,45.131,45.131,0,0,1-48.457-5.213,44.637,44.637,0,0,1-7.423-7.424,45.672,45.672,0,0,1,68.06-60.7,45.719,45.719,0,0,1,3.22,61.039L138.3,125.5a2.4,2.4,0,0,1,0,3.4ZM112.151,49a40.106,40.106,0,0,0-57.222,0,41.144,41.144,0,0,0,3.489,61.083,39.612,39.612,0,0,0,42.939,4.675,40.4,40.4,0,0,0,10.794-7.813A41.341,41.341,0,0,0,112.151,49Zm-8.339,46.778a2,2,0,0,1-2,2H99.031v10.7a1.333,1.333,0,0,1-1.333,1.333H97.146a1.333,1.333,0,0,1-1.333-1.333v-10.7H90.187v13.1a1.333,1.333,0,0,1-1.333,1.334H88.333A1.333,1.333,0,0,1,87,110.885v-13.1H79.781v13.1a1.334,1.334,0,0,1-1.333,1.334H77.927a1.333,1.333,0,0,1-1.333-1.334v-13.1H70.969v10.7a1.333,1.333,0,0,1-1.333,1.333H69.114a1.333,1.333,0,0,1-1.333-1.333v-10.7H64.969a2,2,0,0,1-2-2V93H53.489a1.333,1.333,0,0,1-1.333-1.333V91.114a1.333,1.333,0,0,1,1.333-1.333h9.479V84.156H49.9a1.333,1.333,0,0,1-1.333-1.333V82.3A1.333,1.333,0,0,1,49.9,80.969H62.969V73.75H49.9a1.333,1.333,0,0,1-1.333-1.333V71.9A1.333,1.333,0,0,1,49.9,70.563H62.969V64.906H53.489a1.333,1.333,0,0,1-1.333-1.333V63.052a1.333,1.333,0,0,1,1.333-1.334h9.479V58.906a2,2,0,0,1,2-2h2.813v-10.7a1.333,1.333,0,0,1,1.333-1.333h0.521a1.333,1.333,0,0,1,1.333,1.333v10.7h5.625V43.8a1.333,1.333,0,0,1,1.333-1.333h0.521A1.333,1.333,0,0,1,79.781,43.8v13.1H87V43.8a1.333,1.333,0,0,1,1.333-1.333h0.521A1.333,1.333,0,0,1,90.187,43.8v13.1h5.625v-10.7a1.333,1.333,0,0,1,1.333-1.333H97.7a1.333,1.333,0,0,1,1.333,1.333v10.7h2.782a2,2,0,0,1,2,2v2.813h9.511a1.333,1.333,0,0,1,1.333,1.334v0.521a1.333,1.333,0,0,1-1.333,1.333h-9.511v5.656h13.105A1.333,1.333,0,0,1,118.25,71.9v0.521a1.333,1.333,0,0,1-1.333,1.333H103.812v7.219h13.105A1.333,1.333,0,0,1,118.25,82.3v0.521a1.333,1.333,0,0,1-1.333,1.333H103.812v5.625h9.511a1.333,1.333,0,0,1,1.333,1.333v0.552A1.333,1.333,0,0,1,113.323,93h-9.511v2.781Zm-3.187-4.115V62.094a2,2,0,0,0-2-2H68.156a2,2,0,0,0-2,2v30.5a2,2,0,0,0,2,2H98.625a2,2,0,0,0,2-2V91.667ZM90.207,78.136a5.072,5.072,0,0,1,1.06,3.388,5.5,5.5,0,0,1-2.011,4.515A8.569,8.569,0,0,1,83.8,87.663v0.513a1.6,1.6,0,1,1-3.2,0v-0.5H75.938v-21.4H80.6V65.73a1.6,1.6,0,1,1,3.2,0v0.59a10.15,10.15,0,0,1,4.871,1.241,4.511,4.511,0,0,1,1.967,4.069,4.933,4.933,0,0,1-.965,3.118,4.313,4.313,0,0,1-2.779,1.566V76.46A5.518,5.518,0,0,1,90.207,78.136Zm-3.2-6.082a2.369,2.369,0,0,0-1.09-2.181,6.8,6.8,0,0,0-3.459-.673H79.434v5.913H82.8a5.755,5.755,0,0,0,3.2-.695A2.663,2.663,0,0,0,87.011,72.054Zm-0.571,6.7a6.039,6.039,0,0,0-3.466-.805h-3.54V84.73h3.715a5.463,5.463,0,0,0,3.313-.842,3.106,3.106,0,0,0,1.119-2.656A2.82,2.82,0,0,0,86.44,78.758Zm47.122,69.336v0.843a1,1,0,0,1-1,1H31a1,1,0,0,1-1-1v-0.843a1,1,0,0,1,1-1H132.562A1,1,0,0,1,133.562,148.094Z"/>
</svg>
