<svg xmlns="http://www.w3.org/2000/svg" width="180" height="180" viewBox="0 0 180 180">
  <defs>
    <style>
      .cls-1 {
        fill-rule: evenodd;
      }
    </style>
  </defs>
  <path id="Rounded_Rectangle_2_copy_3" data-name="Rounded Rectangle 2 copy 3" class="cls-1" d="M163,121H56a2,2,0,0,1-2-2V109H37a2,2,0,0,1-2-2V97H16a2,2,0,0,1-2-2V33a2,2,0,0,1,2-2H123a2,2,0,0,1,2,2V43h19a2,2,0,0,1,2,2V55h17a2,2,0,0,1,2,2v62A2,2,0,0,1,163,121Zm-53.5-6a19.84,19.84,0,0,0,13.838-6H95.662A19.839,19.839,0,0,0,109.5,115Zm-5.162-18H76.662A18.957,18.957,0,0,0,104.338,97ZM59,114a2,2,0,0,0,2,2H96.278a29.026,29.026,0,0,1-7.383-7H59v5ZM40,102a2,2,0,0,0,2,2H77.278a29.041,29.041,0,0,1-7.383-7H40v5ZM21,36a2,2,0,0,0-2,2V90a2,2,0,0,0,2,2H56.278C47.769,86.474,42,75.784,42,63.5,42,51.916,47.132,41.755,54.851,36H21Zm48.5,0C57.074,36,47,48.885,47,63.5S57.074,91,69.5,91,92,78.114,92,63.5,81.926,36,69.5,36ZM120,38a2,2,0,0,0-2-2H84.149C91.868,41.755,97,51.916,97,63.5,97,75.784,91.231,86.474,82.722,92H118a2,2,0,0,0,2-2V38Zm21,12a2,2,0,0,0-2-2H125V95a2,2,0,0,1-2,2H111.105a29.036,29.036,0,0,1-7.383,7H139a2,2,0,0,0,2-2V50Zm19,12a2,2,0,0,0-2-2H146v47a2,2,0,0,1-2,2H130.1a29.023,29.023,0,0,1-7.383,7H158a2,2,0,0,0,2-2V62ZM70.949,60.4a23.844,23.844,0,0,1,5.361,1.8,6.95,6.95,0,0,1,2.718,2.538,7.961,7.961,0,0,1-.193,8,7.063,7.063,0,0,1-3.322,2.785,12.209,12.209,0,0,1-3.836.855v0.91A1.694,1.694,0,0,1,70.013,79H69.181a1.694,1.694,0,0,1-1.665-1.722V76.21A8.947,8.947,0,0,1,63,74.234a9.573,9.573,0,0,1-2.987-6.378l4.832-.477a6.016,6.016,0,0,0,1.77,3.628,5.3,5.3,0,0,0,3.6,1.158,5.472,5.472,0,0,0,3.616-1.031,3.08,3.08,0,0,0,1.217-2.41,2.3,2.3,0,0,0-.512-1.507,4.086,4.086,0,0,0-1.787-1.081q-0.873-.306-3.977-1.09a13.391,13.391,0,0,1-5.6-2.47,6.626,6.626,0,0,1-1.2-8.592,6.69,6.69,0,0,1,3.071-2.529,10.256,10.256,0,0,1,2.482-.686V49.722A1.694,1.694,0,0,1,69.181,48h0.832a1.694,1.694,0,0,1,1.665,1.722v0.959a9.013,9.013,0,0,1,5.17,1.966,7.321,7.321,0,0,1,2.458,5.5l-4.967.221A4.305,4.305,0,0,0,72.971,55.6a4.953,4.953,0,0,0-3.146-.843,5.612,5.612,0,0,0-3.389.9,1.826,1.826,0,0,0-.789,1.55,1.927,1.927,0,0,0,.738,1.516Q67.325,59.528,70.949,60.4ZM16,141.093H117.562a1,1,0,0,1,1,1v0.843a1,1,0,0,1-1,1H16a1,1,0,0,1-1-1v-0.843A1,1,0,0,1,16,141.093Zm8.938-5.249V135a1,1,0,0,1,1-1H130.312a1,1,0,0,1,1,1v0.844a1,1,0,0,1-1,1H25.937A1,1,0,0,1,24.938,135.844Z"/>
</svg>
