<svg xmlns="http://www.w3.org/2000/svg" width="40" height="45.97" viewBox="0 0 40 45.97">
  <metadata><?xpacket begin="﻿" id="W5M0MpCehiHzreSzNTczkc9d"?>
<x:xmpmeta xmlns:x="adobe:ns:meta/" x:xmptk="Adobe XMP Core 5.6-c142 79.160924, 2017/07/13-01:06:39        ">
   <rdf:RDF xmlns:rdf="http://www.w3.org/1999/02/22-rdf-syntax-ns#">
      <rdf:Description rdf:about=""/>
   </rdf:RDF>
</x:xmpmeta>
                                                                                                    
                                                                                                    
                                                                                                    
                                                                                                    
                                                                                                    
                                                                                                    
                                                                                                    
                                                                                                    
                                                                                                    
                                                                                                    
                                                                                                    
                                                                                                    
                                                                                                    
                                                                                                    
                                                                                                    
                                                                                                    
                                                                                                    
                                                                                                    
                                                                                                    
                                                                                                    
                           
<?xpacket end="w"?></metadata>
<defs>
    <style>
      .cls-1 {
        fill: #f1b01a;
        fill-rule: evenodd;
      }
    </style>
  </defs>
  <path id="_" data-name="?" class="cls-1" d="M1314.98,3922.87c-5.71,9.16-21.12,14.55-27.7,14.11,3.2-1.62,5.38-4.19,5.94-7.03A19.961,19.961,0,1,1,1314.98,3922.87Zm-14.53-8.4v-0.71a1.516,1.516,0,0,1,.37-1.03,9.27,9.27,0,0,1,1.85-1.39,8.031,8.031,0,0,0,2.53-2.33,5.274,5.274,0,0,0,.79-2.92,4.427,4.427,0,0,0-1.78-3.72,7.912,7.912,0,0,0-4.91-1.36,14.688,14.688,0,0,0-7.3,1.97l1.95,3.79a11.029,11.029,0,0,1,4.95-1.49,2.574,2.574,0,0,1,1.39.34,1.057,1.057,0,0,1,.54.93,1.951,1.951,0,0,1-.5,1.31,7.338,7.338,0,0,1-1.64,1.28,5.877,5.877,0,0,0-1.99,1.83,4.491,4.491,0,0,0-.56,2.31v1.19h4.31Zm-4.13,6.85a3.2,3.2,0,0,0,2.18.69,3.03,3.03,0,0,0,2.12-.7,2.488,2.488,0,0,0,.78-1.96,2.562,2.562,0,0,0-.75-1.97,3.029,3.029,0,0,0-2.15-.71,3.149,3.149,0,0,0-2.21.7,2.556,2.556,0,0,0-.75,1.98A2.5,2.5,0,0,0,1296.32,3921.32Z" transform="translate(-1279 -3891)"/>
</svg>
