<svg xmlns="http://www.w3.org/2000/svg" width="180" height="180" viewBox="0 0 180 180">
  <defs>
    <style>
      .cls-1 {
        fill-rule: evenodd;
      }
    </style>
  </defs>
  <path id="Rounded_Rectangle_1" data-name="Rounded Rectangle 1" class="cls-1" d="M151.313,137.844H46.938a1,1,0,0,1-1-1V136a1,1,0,0,1,1-1H151.313a1,1,0,0,1,1,1v0.844A1,1,0,0,1,151.313,137.844ZM130,120.5a8.5,8.5,0,1,1-8.5-8.5A8.5,8.5,0,0,1,130,120.5Zm-12,0a3.5,3.5,0,1,0,3.5-3.5A3.5,3.5,0,0,0,118,120.5Zm-43,0a8.5,8.5,0,1,1-8.5-8.5A8.5,8.5,0,0,1,75,120.5Zm-12,0a3.5,3.5,0,1,0,3.5-3.5A3.5,3.5,0,0,0,63,120.5ZM144,97H54v7h86a2,2,0,0,1,2,2v2a2,2,0,0,1-2,2H49a1,1,0,0,1-1-1V96L37.87,37H29a2,2,0,0,1-2-2V33a2,2,0,0,1,2-2H43.233L54,90a1,1,0,0,0,1,1h84a1,1,0,0,0,1-1l5-39a1,1,0,0,0-1-1H55a2,2,0,0,1-2-2V46a2,2,0,0,1,2-2h96a1,1,0,0,1,1,1l-7,51A1,1,0,0,1,144,97ZM37,142.093H138.562a1,1,0,0,1,1,1v0.843a1,1,0,0,1-1,1H37a1,1,0,0,1-1-1v-0.843A1,1,0,0,1,37,142.093Z"/>
</svg>
