<svg xmlns="http://www.w3.org/2000/svg" width="180" height="180" viewBox="0 0 180 180">
  <defs>
    <style>
      .cls-1 {
        fill: #f0af1a;
        fill-rule: evenodd;
      }
    </style>
  </defs>
  <path id="Shape_1_copy" data-name="Shape 1 copy" class="cls-1" d="M145.312,142.844H40.938a1,1,0,0,1-1-1V141a1,1,0,0,1,1-1H145.312a1,1,0,0,1,1,1v0.844A1,1,0,0,1,145.312,142.844ZM88.5,135A51.494,51.494,0,0,1,37.35,89.43a50.375,50.375,0,0,1,0-11.836A51.495,51.495,0,0,1,88.5,32,51.5,51.5,0,1,1,88.5,135Zm-12.908-7.9a62.054,62.054,0,0,1-8.219-15.465,49.26,49.26,0,0,0-9.984,5.6A40.8,40.8,0,0,0,75.592,127.1ZM54.307,114.136a63.457,63.457,0,0,1,11.449-6.185C62.674,100,60.914,91.9,60.766,85.709H43.006A44.848,44.848,0,0,0,54.307,114.136ZM43.006,81.29h17.76a78.05,78.05,0,0,1,4.99-22.242,63.5,63.5,0,0,1-11.449-6.185A44.848,44.848,0,0,0,43.006,81.29ZM57.388,49.769a51.028,51.028,0,0,0,9.837,5.45,70.529,70.529,0,0,1,8.367-15.466A42.594,42.594,0,0,0,57.388,49.769ZM86.01,37.987a25.024,25.024,0,0,0-4.551.441A89.42,89.42,0,0,0,71.041,56.84,54.534,54.534,0,0,0,86.01,60.08V37.987Zm0,26.66a51.031,51.031,0,0,1-16.291-4.124A66.144,66.144,0,0,0,65.169,81.29H86.01V64.647Zm0,21.062H65.169a68.911,68.911,0,0,0,4.551,20.769,50.952,50.952,0,0,1,16.291-4.124V85.709Zm0,21.21a55.557,55.557,0,0,0-14.821,3.092,81.149,81.149,0,0,0,10.271,18.561,25.057,25.057,0,0,0,4.551.44V106.919ZM91,38.071v90.857A45.5,45.5,0,0,0,91,38.071Zm28,47.4a6.328,6.328,0,0,1,1.324,4.227,6.852,6.852,0,0,1-2.511,5.633A10.7,10.7,0,0,1,111,97.36V98a2,2,0,0,1-4,0V97.37h-5.813V70.676H107V70a2,2,0,0,1,4,0v0.736a12.678,12.678,0,0,1,6.081,1.548,5.627,5.627,0,0,1,2.456,5.076,6.152,6.152,0,0,1-1.205,3.889,5.388,5.388,0,0,1-3.47,1.954v0.183A6.889,6.889,0,0,1,119,85.475Zm-3.989-7.586a2.954,2.954,0,0,0-1.361-2.721,8.5,8.5,0,0,0-4.318-.84h-3.779V81.7h4.2a7.191,7.191,0,0,0,4-.867A3.322,3.322,0,0,0,115.009,77.888ZM114.3,86.251a7.547,7.547,0,0,0-4.327-1h-4.418V93.7h4.637a6.825,6.825,0,0,0,4.136-1.05,3.875,3.875,0,0,0,1.4-3.314A3.518,3.518,0,0,0,114.3,86.251Zm19.266,61.843v0.843a1,1,0,0,1-1,1H31a1,1,0,0,1-1-1v-0.843a1,1,0,0,1,1-1H132.562A1,1,0,0,1,133.562,148.094Z"/>
</svg>
