<svg xmlns="http://www.w3.org/2000/svg" width="180" height="180" viewBox="0 0 180 180">
  <defs>
    <style>
      .cls-1 {
        fill-rule: evenodd;
      }
    </style>
  </defs>
  <path id="Rounded_Rectangle_2_copy" data-name="Rounded Rectangle 2 copy" class="cls-1" d="M144.575,50.481L75.407,119.712c-12.965-1.4-24.661-16.883-25.061-25.084L119.514,25.4a1.417,1.417,0,0,1,2.005,0l23.056,23.077A1.421,1.421,0,0,1,144.575,50.481Zm-8.02-2.006-15.036-15.05a1.417,1.417,0,0,0-2.005,0L57.364,95.632c1.814,9.507,9.541,16.06,17.041,17.057l62.15-62.208A1.419,1.419,0,0,0,136.555,48.475ZM51.349,125.732c0.846-.345,14.8-5.324,14.8-5.324a27.281,27.281,0,0,0,7.168,2.7s-23.506,8.483-23.976,8.639c-0.407-5.612-5.106-9.438-10.024-10.033,0.439-1.443,7.618-24.782,7.618-24.782a27.665,27.665,0,0,0,2.99,7.275s-4.344,14.434-4.594,15.5C47.214,120.089,51,123.757,51.349,125.732Zm-5.012,7.024c-0.407.094-11.027,3.01-11.027,3.01s2.725-10.065,3.007-11.037C41.544,124.447,46.494,129.463,46.337,132.756Zm81.225,7.306a1,1,0,0,1,1,1v0.844a1,1,0,0,1-1,1H36a1,1,0,0,1-1-1v-0.844a1,1,0,0,1,1-1h91.562Zm-81.624,7.094h94.375a1,1,0,0,1,1,1V149a1,1,0,0,1-1,1H45.938a1,1,0,0,1-1-1v-0.844A1,1,0,0,1,45.938,147.156Z"/>
</svg>
