<svg xmlns="http://www.w3.org/2000/svg" width="40" height="45.97" viewBox="0 0 40 45.97">
  <metadata><?xpacket begin="﻿" id="W5M0MpCehiHzreSzNTczkc9d"?>
<x:xmpmeta xmlns:x="adobe:ns:meta/" x:xmptk="Adobe XMP Core 5.6-c142 79.160924, 2017/07/13-01:06:39        ">
   <rdf:RDF xmlns:rdf="http://www.w3.org/1999/02/22-rdf-syntax-ns#">
      <rdf:Description rdf:about=""/>
   </rdf:RDF>
</x:xmpmeta>
                                                                                                    
                                                                                                    
                                                                                                    
                                                                                                    
                                                                                                    
                                                                                                    
                                                                                                    
                                                                                                    
                                                                                                    
                                                                                                    
                                                                                                    
                                                                                                    
                                                                                                    
                                                                                                    
                                                                                                    
                                                                                                    
                                                                                                    
                                                                                                    
                                                                                                    
                                                                                                    
                           
<?xpacket end="w"?></metadata>
<defs>
    <style>
      .cls-1 {
        fill: #f0af1a;
        fill-rule: evenodd;
      }
    </style>
  </defs>
  <path id="testi_icon" data-name="testi icon" class="cls-1" d="M1314.98,2259.87c-5.71,9.16-21.12,14.55-27.7,14.11,3.2-1.62,5.38-4.19,5.94-7.03A19.961,19.961,0,1,1,1314.98,2259.87Zm-17.67-12.14h-3.7a6.22,6.22,0,0,1,1.05-3.6,6.448,6.448,0,0,1,3.27-2.11l-1.49-3.14a11.1,11.1,0,0,0-4.03,2.39,7.953,7.953,0,0,0-2.16,3.42,18.473,18.473,0,0,0-.58,5.21v5.44h7.64v-7.61Zm10.68,0h-3.7a6.3,6.3,0,0,1,1.05-3.6,6.437,6.437,0,0,1,3.28-2.11l-1.5-3.14a11.263,11.263,0,0,0-4.01,2.39,7.88,7.88,0,0,0-2.17,3.4,18.478,18.478,0,0,0-.59,5.23v5.44h7.64v-7.61Z" transform="translate(-1279 -2228)"/>
</svg>
