<svg xmlns="http://www.w3.org/2000/svg" width="180" height="180" viewBox="0 0 180 180">
  <defs>
    <style>
      .cls-1 {
        fill: #f0af1a;
        fill-rule: evenodd;
      }
    </style>
  </defs>
  <path id="Rounded_Rectangle_2_copy_8" data-name="Rounded Rectangle 2 copy 8" class="cls-1" d="M137,88a14.962,14.962,0,0,1-11.677-5.6L118.742,88.2a32,32,0,1,1-59.183-.753,0.924,0.924,0,0,1-.084-0.056l-6.393-5.525a14.6,14.6,0,1,1,1.094-1.691l6.259,5.409A31.992,31.992,0,0,1,89,68V62a15.116,15.116,0,1,1,1.971-.144A0.944,0.944,0,0,1,91,62v6.069a31.986,31.986,0,0,1,26.886,18.223l6.291-5.539A14.989,14.989,0,1,1,137,88ZM41,61A12,12,0,1,0,53,73,12,12,0,0,0,41,61Zm60-14A12,12,0,1,0,89,59,12,12,0,0,0,101,47ZM89,72.312A27.687,27.687,0,1,0,116.687,100,27.687,27.687,0,0,0,89,72.312ZM137,61a12,12,0,1,0,12,12A12,12,0,0,0,137,61Zm4.194,12.6a2.277,2.277,0,0,1,.811,1.839,3,3,0,0,1-1.363,2.621,6.837,6.837,0,0,1-3.895.937,10.424,10.424,0,0,1-3.761-.63v-2.1a9.1,9.1,0,0,0,1.666.559,7.794,7.794,0,0,0,1.8.216,3.83,3.83,0,0,0,2.014-.415,1.462,1.462,0,0,0,.651-1.333,1.191,1.191,0,0,0-.749-1.165,6.126,6.126,0,0,0-2.389-.343h-0.989V71.9H136a5.169,5.169,0,0,0,2.215-.355,1.254,1.254,0,0,0,.7-1.217q0-1.325-1.854-1.325a4.7,4.7,0,0,0-1.306.192,6.687,6.687,0,0,0-1.475.662L133,68.156a7.676,7.676,0,0,1,4.252-1.149,5.979,5.979,0,0,1,3.195.734,2.291,2.291,0,0,1,1.172,2.042,2.578,2.578,0,0,1-.74,1.859,3.958,3.958,0,0,1-2.076,1.053v0.048A4.412,4.412,0,0,1,141.194,73.6ZM90.044,96.2a26.835,26.835,0,0,1,5.9,1.913,7.552,7.552,0,0,1,2.99,2.7,8.241,8.241,0,0,1-.212,8.513,7.711,7.711,0,0,1-3.654,2.964,13.791,13.791,0,0,1-4.219.91v0.969A1.832,1.832,0,0,1,89.014,116H88.1a1.832,1.832,0,0,1-1.831-1.833V113.03a9.2,9.2,0,0,1-8.258-8.893l5.316-.507a6.328,6.328,0,0,0,1.947,3.861,5.952,5.952,0,0,0,3.959,1.233,6.159,6.159,0,0,0,3.977-1.1,3.244,3.244,0,0,0,1.338-2.565,2.392,2.392,0,0,0-.563-1.6,4.524,4.524,0,0,0-1.966-1.152q-0.96-.325-4.374-1.16-4.393-1.069-6.165-2.629a6.865,6.865,0,0,1-2.492-5.349,6.745,6.745,0,0,1,1.172-3.8,7.312,7.312,0,0,1,3.378-2.693,11.587,11.587,0,0,1,2.73-.73V84.833A1.832,1.832,0,0,1,88.1,83h0.915a1.832,1.832,0,0,1,1.831,1.834v1.021a10.106,10.106,0,0,1,5.687,2.093,7.686,7.686,0,0,1,2.7,5.856l-5.463.236a4.532,4.532,0,0,0-1.5-2.946,5.58,5.58,0,0,0-3.461-.9,6.323,6.323,0,0,0-3.728.961,1.925,1.925,0,0,0-.867,1.65,2.028,2.028,0,0,0,.812,1.614Q86.057,95.271,90.044,96.2ZM85.019,51.269l2.867-3q1.273-1.352,1.664-1.874a4.155,4.155,0,0,0,.563-0.967,2.542,2.542,0,0,0,.172-0.923,1.372,1.372,0,0,0-.379-1.06,1.44,1.44,0,0,0-1.012-.348,2.82,2.82,0,0,0-1.289.316,6.609,6.609,0,0,0-1.3.9L84.987,42.7a8.613,8.613,0,0,1,1.4-1.052,5.037,5.037,0,0,1,1.211-.474,6.031,6.031,0,0,1,1.469-.166,4.222,4.222,0,0,1,1.891.4,3.052,3.052,0,0,1,1.273,1.133,3.092,3.092,0,0,1,.453,1.667,4.209,4.209,0,0,1-.277,1.533,5.93,5.93,0,0,1-.859,1.469A21.413,21.413,0,0,1,89.5,49.359l-1.469,1.432v0.114H93v2.1H85.019v-1.74ZM40.431,72.062l0.025-1.141L40.5,69.673q-0.637.632-.885,0.829l-1.39,1.109-1.233-1.527L40.886,67h2.1V79.009H40.431V72.062ZM32,147.094H133.562a1,1,0,0,1,1,1v0.843a1,1,0,0,1-1,1H32a1,1,0,0,1-1-1v-0.843A1,1,0,0,1,32,147.094Zm8.937-5.25V141a1,1,0,0,1,1-1H146.312a1,1,0,0,1,1,1v0.844a1,1,0,0,1-1,1H41.938A1,1,0,0,1,40.937,141.844Z"/>
</svg>
