<svg id="vertical_2" data-name="vertical 2" xmlns="http://www.w3.org/2000/svg" width="522.719" height="100" viewBox="0 0 522.719 100">
  <metadata><?xpacket begin="﻿" id="W5M0MpCehiHzreSzNTczkc9d"?>
<x:xmpmeta xmlns:x="adobe:ns:meta/" x:xmptk="Adobe XMP Core 5.6-c142 79.160924, 2017/07/13-01:06:39        ">
   <rdf:RDF xmlns:rdf="http://www.w3.org/1999/02/22-rdf-syntax-ns#">
      <rdf:Description rdf:about=""/>
   </rdf:RDF>
</x:xmpmeta>
                                                                                                    
                                                                                                    
                                                                                                    
                                                                                                    
                                                                                                    
                                                                                                    
                                                                                                    
                                                                                                    
                                                                                                    
                                                                                                    
                                                                                                    
                                                                                                    
                                                                                                    
                                                                                                    
                                                                                                    
                                                                                                    
                                                                                                    
                                                                                                    
                                                                                                    
                                                                                                    
                           
<?xpacket end="w"?></metadata>
<defs>
    <style>
      .cls-1 {
        fill: #fff;
      }

      .cls-1, .cls-2, .cls-3 {
        fill-rule: evenodd;
      }

      .cls-2 {
        fill: #f0af1a;
      }
    </style>
  </defs>
  <g id="type">
    <path id="bitcoin" class="cls-1" d="M381.519,668.6l-5.086,21.87H367l5.079-21.835q0.621-2.673-.559-4.114a4.771,4.771,0,0,0-3.9-1.44,6.633,6.633,0,0,0-4.39,1.475,7.378,7.378,0,0,0-2.394,4.148l-5.062,21.766h-9.436l8.854-34.077s1.494-2.434,3.623-2.434h13.249c0.337-.025.678-0.043,1.028-0.043q5.647,0,7.855,3.836T381.519,668.6Zm-40.351-19.092,2.212-9.512h9.436l-2.212,9.512h-9.436Zm-0.091,40.962h-9.436l8.38-36.033h9.437Zm-10.5-15.066a20.247,20.247,0,0,1-6.7,11.507,18.839,18.839,0,0,1-12.348,4.079q-7.371,0-10.443-4.113T299.745,675.3l1.365-5.867a20.117,20.117,0,0,1,6.693-11.455,18.877,18.877,0,0,1,12.344-4.062q7.37,0,10.455,4.062t1.365,11.455Zm-8.542-10.657a4.651,4.651,0,0,0-4.055-1.666,7.092,7.092,0,0,0-4.8,1.666,8.5,8.5,0,0,0-2.64,4.686l-1.389,5.971q-0.709,3.055.448,4.738t4.017,1.684a7.2,7.2,0,0,0,4.834-1.684,8.547,8.547,0,0,0,2.686-4.738l1.389-5.971Q323.233,666.411,322.036,664.745Zm-33.245-1.666a9.3,9.3,0,0,0-5.993,1.926,9.428,9.428,0,0,0-3.227,5.433l-0.9,3.853q-0.879,3.784.607,5.832t5.068,2.048a11.051,11.051,0,0,0,7.4-2.812l4.707,5.971a18.6,18.6,0,0,1-6.655,4.183,23.4,23.4,0,0,1-8.3,1.475q-7.68,0-10.9-4.356t-1.366-12.341l0.9-3.853q1.833-7.88,7.074-12.2a19.639,19.639,0,0,1,12.921-4.322,17.774,17.774,0,0,1,7.622,1.511,9.81,9.81,0,0,1,4.676,4.252l-7.485,5.971A7.523,7.523,0,0,0,288.791,663.079Zm-20.529-.521h-4.374l-3.722,16a3.1,3.1,0,0,0,.049,2.013,1.343,1.343,0,0,0,1.346.729H263.9l-2.131,9.165h-4.753q-4.786,0-6.349-2.465t-0.488-7.082l8.6-36.969h9.436l-2.438,10.483h4.373Zm-26.4-13.052,2.212-9.512h9.437l-2.212,9.512h-9.437Zm-0.09,40.962h-9.437l8.381-36.033h9.436Zm-10.5-15.066q-1.728,7.429-5.811,11.507a13.409,13.409,0,0,1-9.834,4.079,7.5,7.5,0,0,1-5.031-1.614,6.623,6.623,0,0,1-2.081-3.49l-1.066,4.584h-9.437l11.739-50.474h9.437l-4.449,19.129a15.98,15.98,0,0,1,3.894-3.49,10.509,10.509,0,0,1,5.617-1.719q5.751,0,7.929,4.114t0.433,11.612ZM222.9,664.554a3.886,3.886,0,0,0-3.692-1.822,6.645,6.645,0,0,0-3.033.677,6.161,6.161,0,0,0-2.264,1.961,8.683,8.683,0,0,0-1.347,3.124h0l-1.881,8.088h0a6.323,6.323,0,0,0-.082,3.02,3.111,3.111,0,0,0,1.364,1.909,5,5,0,0,0,2.722.66,6.359,6.359,0,0,0,4.527-1.77,9.7,9.7,0,0,0,2.626-5l1.333-5.728Q223.94,666.377,222.9,664.554Z" transform="translate(-114 -616)"/>
    <path id="News_Trader" data-name="News Trader" class="cls-2" d="M633.864,670.461q-1.2-1.611-4.254-1.611a7.973,7.973,0,0,0-5.2,1.683,7.892,7.892,0,0,0-2.707,4.617l-3.43,15.8h-3.435l5.418-24.96h3.435l-0.785,3.616a13.349,13.349,0,0,1,3.646-2.727,11.181,11.181,0,0,1,5.114-1.25,6.242,6.242,0,0,1,5.04,1.948Zm-20.88,9.522H595.951l-0.053.241q-0.813,3.751.744,5.807t5.207,2.056a10.979,10.979,0,0,0,6.994-2.765l1.848,2.26a17.981,17.981,0,0,1-4.725,2.753,13.242,13.242,0,0,1-4.816.974q-5.177,0-7.382-2.921t-1.045-8.26l0.61-2.814a15.743,15.743,0,0,1,4.594-8.632,12.026,12.026,0,0,1,8.368-3.054q4.676,0,6.588,3.006t0.722,8.488Zm-2.951-9.1q-1.288-2.032-4.437-2.032a8.305,8.305,0,0,0-5.808,2.14,11.02,11.02,0,0,0-3.153,5.867h13.831l0.052-.24Q611.322,672.915,610.033,670.882Zm-27.809,20.067,0.7-3.212a7.778,7.778,0,0,1-3.3,2.634,13.415,13.415,0,0,1-5.13.938q-4.079,0-5.75-2.633t-0.627-7.442l1.18-5.435a14.394,14.394,0,0,1,3.8-7.514,9.315,9.315,0,0,1,6.731-2.657,10.091,10.091,0,0,1,4.648,1.01,5.275,5.275,0,0,1,2.44,2.714l2.9-13.367h3.435l-7.589,34.964h-3.436Zm3.387-19.009a4.6,4.6,0,0,0-1.628-2.393,5.08,5.08,0,0,0-3.208-.937,7.507,7.507,0,0,0-5.2,1.887,9.665,9.665,0,0,0-2.85,5.326l-1.175,5.411q-0.731,3.366.559,5.23t4.39,1.864a6.944,6.944,0,0,0,3.62-.962A8.7,8.7,0,0,0,582.8,684.9a8.438,8.438,0,0,0,1.41-3.09l1.477-6.805h0A6.154,6.154,0,0,0,585.611,671.94Zm-23.846,19.009H558.33l0.358-1.652a8.931,8.931,0,0,1-1.587.882,13.167,13.167,0,0,1-2.83.842,17.938,17.938,0,0,1-3.272.288q-4.342,0-6.289-2.02t-1.148-5.7a8.864,8.864,0,0,1,3.382-5.47,10.754,10.754,0,0,1,6.575-1.936h8.016l0.229-1.058q0.658-3.03-.589-4.7t-4.206-1.671a12.038,12.038,0,0,0-6.945,2.212l-2.129-1.731a12.483,12.483,0,0,1,4.286-2.657,14.91,14.91,0,0,1,5.323-.95q4.653,0,6.678,2.429t1.065,6.853Zm-8.922-11.543a6.609,6.609,0,0,0-3.923,1.094,4.922,4.922,0,0,0-1.971,3.09,3.111,3.111,0,0,0,.922,3.283,6.7,6.7,0,0,0,4.363,1.166,16.275,16.275,0,0,0,5.1-.649q1.906-.649,2.162-1.828l1.336-6.156h-7.992ZM539.519,668.85a7.973,7.973,0,0,0-5.2,1.683,7.893,7.893,0,0,0-2.708,4.617h0l-3.429,15.8H524.75l5.418-24.96H533.6l-0.785,3.616a13.349,13.349,0,0,1,3.646-2.727,11.181,11.181,0,0,1,5.114-1.25,6.243,6.243,0,0,1,5.04,1.948l-2.845,2.885Q542.572,668.85,539.519,668.85Zm-17.388-9.642-6.891,31.741h-3.435l6.89-31.741h-10.52l0.7-3.223h24.477l-0.7,3.223h-10.52Zm-30.215,9.378a10.45,10.45,0,0,0-5.278,1.178,4.934,4.934,0,0,0-2.5,3.318,2.166,2.166,0,0,0,.552,2.345,5.254,5.254,0,0,0,2.591.925q1.681,0.217,3.66.337,1.53,0.1,3.064.337a7.984,7.984,0,0,1,2.724.914,3.8,3.8,0,0,1,1.706,2.031,6.672,6.672,0,0,1,.01,3.692,8.513,8.513,0,0,1-4.063,5.638,15.966,15.966,0,0,1-8.452,2.008,14.532,14.532,0,0,1-5.34-.95,9.721,9.721,0,0,1-3.934-2.705l2.508-2.428a11.359,11.359,0,0,0,7.647,3.126,11.831,11.831,0,0,0,5.765-1.227,5.1,5.1,0,0,0,2.7-3.462,2.481,2.481,0,0,0-.6-2.67,5.689,5.689,0,0,0-2.844-1.022q-1.836-.228-3.941-0.42a26.482,26.482,0,0,1-2.906-.349,7.6,7.6,0,0,1-2.5-.878,3.479,3.479,0,0,1-1.543-1.851,5.973,5.973,0,0,1-.012-3.295,8.578,8.578,0,0,1,3.8-5.578,13.9,13.9,0,0,1,7.74-1.972,15.02,15.02,0,0,1,4.675.721,11.8,11.8,0,0,1,3.82,2.02l-2.5,2.381A11.421,11.421,0,0,0,491.916,668.586Zm-26.483,22.363-2.305-18.612L452.6,690.949h-3.1l-2.407-24.96h3.65l1.737,20.463L463.5,665.989h2l2.261,20.463,10.359-20.463h3.65l-13.244,24.96h-3.1Zm-22.755-10.966H425.645l-0.052.241q-0.815,3.751.743,5.807t5.208,2.056a10.983,10.983,0,0,0,6.994-2.765l1.847,2.26a17.965,17.965,0,0,1-4.725,2.753,13.238,13.238,0,0,1-4.816.974q-5.177,0-7.381-2.921t-1.046-8.26l0.611-2.814a15.736,15.736,0,0,1,4.593-8.632,12.026,12.026,0,0,1,8.369-3.054q4.676,0,6.588,3.006t0.722,8.488Zm-2.95-9.1q-1.29-2.032-4.438-2.032a8.307,8.307,0,0,0-5.808,2.14,11.02,11.02,0,0,0-3.153,5.867H440.16l0.052-.24Q441.016,672.915,439.728,670.882Zm-28.353,20.043-12.413-28.866L392.7,690.925H389.26l7.585-34.94H400.3l12.367,29.3,6.36-29.3h3.435l-7.584,34.94h-3.507Z" transform="translate(-114 -616)"/>
  </g>
  <g id="B">
    <path id="Rectangle_1_copy_2" data-name="Rectangle 1 copy 2" class="cls-3" d="M167.286,665.675a21.111,21.111,0,0,1-6.01,41.226v0.008H139.905V716h-2.591v-9.091H127.6v-2.6h7.771v-2.6h3.886v-2.6h-1.943v-2.6h-1.295v-2.6h-6.476v-2.6h7.124v-3.247H119.829v-2.6h18.78v-2.6h7.124v-2.6H130.19v-2.6h-8.419v-2.6H128.9v-2.6h-3.886v-1.948h-4.533V667.3h3.238v-2.6H114v-2.6h9.714v-2.6h9.067v-2.6H128.9v-2.6h7.772v-3.247h-3.886v-2.6h4.533v-2.6h7.124v-2.6h-7.771v-2.6h-13.6v-2.6h13.6v-2.6h-3.886v-2.6h4.533v-2.6h7.124v-2.6H131.486v-2.6h5.828V616h2.591v9.091h21.371V625.1C172.75,625.273,182,634,182,645.545A21.1,21.1,0,0,1,167.286,665.675Z" transform="translate(-114 -616)"/>
    <path id="Rectangle_1_copy_5" data-name="Rectangle 1 copy 5" class="cls-2" d="M167.286,665.675a21.111,21.111,0,0,1-6.01,41.226v0.008H150.267V716h-2.591V704.307h2.591v0h11.009V704.3a18.5,18.5,0,0,0,0-37V667.3H117.238v-2.6h44.038v-0.008c10.044-.174,18.133-9.036,18.133-19.148S171.32,627.87,161.276,627.7v-0.008H150.267v0h-2.591V616h2.591v9.091h11.009V625.1C172.75,625.273,182,634,182,645.545A21.1,21.1,0,0,1,167.286,665.675Zm-6.01-35.381a15.905,15.905,0,0,1,0,31.8V662.1H123.714v-2.6h37.562V659.5a13.308,13.308,0,0,0,0-26.607v-0.008H145.085v0h-2.592V621.2h2.592v9.091h16.191v0.008Zm0,7.8v-0.016H136.019v-2.6h25.257V635.5a10.7,10.7,0,0,1,0,21.4v0.016H128.9v-2.6h32.381v-0.017A8.107,8.107,0,0,0,161.276,638.094Zm0,31.81a15.905,15.905,0,0,1,0,31.8v0.008H145.085v9.091h-2.592V699.112h2.592v0h16.191v-0.008a13.308,13.308,0,0,0,0-26.607v-0.009H123.714v-2.6h37.562V669.9Zm0,5.2a10.7,10.7,0,0,1,0,21.4v0.016H136.019v-2.6h25.257v-0.016a8.107,8.107,0,0,0,0-16.2v-0.017H128.9v-2.6h32.381v0.016Z" transform="translate(-114 -616)"/>
  </g>
</svg>
